<?xml version="1.0" encoding="UTF-8" standalone="no"?>
<!-- Created with Inkscape (http://www.inkscape.org/) -->

<svg
   width="74.537407mm"
   height="65.846512mm"
   viewBox="0 0 74.537407 65.846512"
   version="1.1"
   id="svg21543"
   xml:space="preserve"
   xmlns:inkscape="http://www.inkscape.org/namespaces/inkscape"
   xmlns:sodipodi="http://sodipodi.sourceforge.net/DTD/sodipodi-0.dtd"
   xmlns:xlink="http://www.w3.org/1999/xlink"
   xmlns="http://www.w3.org/2000/svg"
   xmlns:svg="http://www.w3.org/2000/svg"><sodipodi:namedview
     id="namedview21545"
     pagecolor="#ffffff"
     bordercolor="#999999"
     borderopacity="1"
     inkscape:showpageshadow="0"
     inkscape:pageopacity="0"
     inkscape:pagecheckerboard="0"
     inkscape:deskcolor="#d1d1d1"
     inkscape:document-units="mm"
     showgrid="false" /><defs
     id="defs21540"><linearGradient
       inkscape:collect="always"
       id="linearGradient31340"><stop
         style="stop-color:#00525b;stop-opacity:1;"
         offset="0"
         id="stop31336" /><stop
         style="stop-color:#00a0c6;stop-opacity:1;"
         offset="1"
         id="stop31338" /></linearGradient><linearGradient
       inkscape:collect="always"
       xlink:href="#linearGradient31340"
       id="linearGradient30973"
       x1="47.202499"
       y1="102.6446"
       x2="93.642899"
       y2="102.6446"
       gradientUnits="userSpaceOnUse" /><linearGradient
       inkscape:collect="always"
       xlink:href="#linearGradient31340"
       id="linearGradient31342"
       x1="47.202499"
       y1="90.537102"
       x2="81.878448"
       y2="90.537102"
       gradientUnits="userSpaceOnUse" /></defs><g
     inkscape:label="Layer 1"
     inkscape:groupmode="layer"
     id="layer1"
     transform="translate(-47.202497,-41.477011)"><g
       id="g30873"
       inkscape:label="Butterfly"
       transform="matrix(0.03527778,0,0,-0.03527778,50.270642,236.52468)"><path
         d="m 1152.1,4510.94 436.91,334.1 436.89,154 -100.18,-180.11 -773.62,-307.99"
         style="fill:#ff7300;fill-opacity:1;fill-rule:nonzero;stroke:none"
         id="path166" /><path
         d="m 1925.72,4818.93 -436.9,-420.23 -409.07,28.71 72.35,83.53 773.62,307.99"
         style="fill:#d35a00;fill-opacity:1;fill-rule:nonzero;stroke:none"
         id="path168" /><path
         d="m 1079.75,4427.41 -91.836,-529.86 409.086,441.12 -5.59,70.47 -311.66,18.27"
         style="fill:#7f3600;fill-opacity:1;fill-rule:nonzero;stroke:none"
         id="path170" /><path
         d="m 706.836,3764.43 286.637,553.36 -275.496,-349.76 -133.582,-281.9 122.441,78.3"
         style="fill:#d35a00;fill-opacity:1;fill-rule:nonzero;stroke:none"
         id="path172" /><path
         d="m 1232.79,4576.2 -72.34,-31.33 -8.35,-33.93 -44.55,-2.61 -141.917,-200.99 -275.5,-305.38 27.844,-33.93 361.773,459.38 66.78,73.08 86.26,75.71"
         style="fill:#7f3600;fill-opacity:1;fill-rule:nonzero;stroke:none"
         id="path174" /><path
         d="m 1132.61,4510.94 -25.06,-2.61 -453.581,944.87 219.836,75.71 178.105,-159.23 80.7,-858.74"
         style="fill:#ff7300;fill-opacity:1;fill-rule:nonzero;stroke:none"
         id="path176" /><path
         d="m 1132.61,4510.94 77.92,185.32 -30.6,422.84 -128.02,250.58 80.7,-858.74"
         style="fill:#d35a00;fill-opacity:1;fill-rule:nonzero;stroke:none"
         id="path178" /><path
         d="m 653.969,5453.2 -272.723,-417.61 155.848,-169.67 539.856,-401.96 30.6,44.37 -453.581,944.87"
         style="fill:#d35a00;fill-opacity:1;fill-rule:nonzero;stroke:none"
         id="path180" /><path
         d="m 1076.95,4463.96 -545.438,409.79 c 0,0 -289.407,-52.2 -289.407,-44.38 C 242.105,4837.21 0,4463.96 0,4463.96 h 1076.95"
         style="fill:#7f3600;fill-opacity:1;fill-rule:nonzero;stroke:none"
         id="path182" /><path
         d="m 0,4463.96 155.828,-456.79 859.912,370.65 61.21,86.14 H 0"
         style="fill:#ad4e00;fill-opacity:1;fill-rule:nonzero;stroke:none"
         id="path184" /><path
         d="M 155.828,4007.17 1015.74,4377.82 859.898,4210.77 598.305,4069.82 155.828,4007.17"
         style="fill:#d35a00;fill-opacity:1;fill-rule:nonzero;stroke:none"
         id="path186" /><path
         d="m 1079.75,4427.41 -86.277,-109.62 -286.637,-553.36 281.078,122.68 91.836,540.3"
         style="fill:#ad4e00;fill-opacity:1;fill-rule:nonzero;stroke:none"
         id="path188" /><path
         d="m 1214.71,4568.36 66.79,154.66 -48.71,-146.82 z"
         style="fill:#ad4e00;fill-opacity:1;fill-rule:nonzero;stroke:none"
         id="path190" /></g><text
       xml:space="preserve"
       style="font-weight:bold;font-size:7.76111px;line-height:1;font-family:Futura;-inkscape-font-specification:'Futura Bold';fill:none;stroke:url(#linearGradient30973);stroke-width:3.18;stroke-linecap:round;stroke-linejoin:round;stroke-opacity:1;paint-order:stroke fill markers"
       x="48.179371"
       y="105.57053"
       id="text22785"><tspan
         sodipodi:role="line"
         id="tspan22783"
         x="48.179371"
         y="105.57053"
         style="font-size:7.76111px;fill:#ffffff;fill-opacity:1;stroke:url(#linearGradient30973);stroke-width:3.18;stroke-opacity:1">RECORDER</tspan></text><text
       xml:space="preserve"
       style="font-weight:bold;font-size:14.1111px;line-height:1;font-family:Futura;-inkscape-font-specification:'Futura Bold';fill:none;stroke:url(#linearGradient31342);stroke-width:3.18;stroke-linecap:round;stroke-linejoin:round;stroke-opacity:1;paint-order:stroke fill markers"
       x="47.677723"
       y="95.708817"
       id="text22785-2"><tspan
         sodipodi:role="line"
         id="tspan22783-3"
         x="47.677723"
         y="95.708817"
         style="font-size:14.1111px;fill:#ffffff;fill-opacity:1;stroke:url(#linearGradient31342);stroke-width:3.18;stroke-opacity:1">BUX</tspan></text></g></svg>
